# xmcd
#
# Track frame offsets:
#  150
#  17492
#  38567
#  54123
#  73726
#  89758
#  106899
#  120989
#  134337
#  152345
#  167632
#  182811
#  205335
#  221265
#  238639
#  255705
#
# Disc length: 3585 seconds
#
# Revision: 0
# Processed by: cddbd v1.5.1PL2 Copyright (c) Steve Scherf et al.
# Submitted via: Collectorz.com_Music_Collector 6.11
#
DISCID=ce0dff10
DTITLE=Patricia Kaas - Sexe Fort
DYEAR=2003
DGENRE=French Female Singer
TTITLE0=Où Sont Les Hommes
TTITLE1=L'abbé Caillou
TTITLE2=Je Ne Veux Plus Te Pardonner
TTITLE3=La Nuit Est Mauve
TTITLE4=C'est Les Femmes Qui Mènent La Danse
TTITLE5=On Pourrait
TTITLE6=J'en Tremblerai Encore
TTITLE7=Je T'aime, Je Ne T'aime Plus
TTITLE8=C'est La Faute À La Vie
TTITLE9=Je Le Garde Pour Toi
TTITLE10=Ma Blessure
TTITLE11=Des Regrets
TTITLE12=Tu Pourras Dire
TTITLE13=Peut-Être Que Peut-Être
TTITLE14=Une Question De Temps
TTITLE15=Je Maudis
EXTD=
EXTT0=
EXTT1=
EXTT2=
EXTT3=
EXTT4=
EXTT5=
EXTT6=
EXTT7=
EXTT8=
EXTT9=
EXTT10=
EXTT11=
EXTT12=
EXTT13=
EXTT14=
EXTT15=
PLAYORDER=
